<svg width="358" height="137" viewBox="0 0 358 137" fill="none" xmlns="http://www.w3.org/2000/svg">
<g id="aircraft-Front-view " clip-path="url(#clip0_1_2)">
<path id="Vector" d="M76.2101 98.1813C81.964 98.1813 86.6284 93.7839 86.6284 88.3594C86.6284 82.9349 81.964 78.5375 76.2101 78.5375C70.4562 78.5375 65.7917 82.9349 65.7917 88.3594C65.7917 93.7839 70.4562 98.1813 76.2101 98.1813Z" fill="#3F3D56"/>
<g id="plane front">
<path id="Vector_2" d="M38.6607 87.7541L39.4003 82.3064L158.657 93.6975L158.007 101.738L38.6607 87.7541Z" fill="#020215"/>
<path id="Vector_3" d="M318.436 87.7541L317.697 82.3064L198.44 93.6975L199.09 101.738L318.436 87.7541Z" fill="#020215"/>
</g>
<g id="plane body">
<path id="Vector_4" d="M159.697 74.9248L119.655 73.2933L125.896 70.7295L160.998 71.1956L159.697 74.9248Z" fill="#948181"/>
<path id="Vector_5" d="M197.4 74.9248L237.442 73.2933L231.202 70.7295L196.1 71.1956L197.4 74.9248Z" fill="#948181"/>
<path id="Vector_6" d="M182.918 63.8723L181.098 27.979L178.238 33.5727L178.758 65.0376L182.918 63.8723Z" fill="#948181"/>
<path id="Vector_7" d="M182.549 52.6091L181.711 27.6569L180.393 31.5456L180.633 53.4192L182.549 52.6091Z" fill="#051934"/>
<path id="Vector_8" d="M1.72461 78.6222L6.50097 76.9938L154.786 80.4831L160.95 77.9243L158.382 93.7426L40.5922 82.3736L1.72461 78.6222Z" fill="#948181"/>
<path id="Vector_9" d="M357.049 76.7426L352.272 74.984L203.987 78.7524L197.823 75.9889L200.391 93.0726L318.181 80.7942L357.049 76.7426Z" fill="#948181"/>
<path id="Vector_10" d="M201.235 70.4538L200.645 74.3523L200.338 95.3383C200.314 96.8999 200.104 98.4428 199.709 99.9392C198.57 104.298 195.91 108.262 191.981 111.136C188.416 113.746 183.554 115.723 177.119 115.373C159.958 114.441 158.442 101.349 158.442 101.349L159.089 77.6084L159.177 74.3524L159.958 68.4773C159.958 68.4773 162.038 51.9291 181.279 52.3952C200.52 52.8614 201.235 70.4538 201.235 70.4538V70.4538Z" fill="#948181"/>
<g id="propellor circle">
<path id="Vector_11" d="M76.2101 98.1813C81.964 98.1813 86.6284 93.7839 86.6284 88.3594C86.6284 82.9349 81.964 78.5375 76.2101 78.5375C70.4562 78.5375 65.7917 82.9349 65.7917 88.3594C65.7917 93.7839 70.4562 98.1813 76.2101 98.1813Z" fill="#948181"/>
<path id="Vector_12" d="M179.854 89.4865C183.922 89.4865 187.219 86.675 187.219 83.2069C187.219 79.7388 183.922 76.9274 179.854 76.9274C175.787 76.9274 172.49 79.7388 172.49 83.2069C172.49 86.675 175.787 89.4865 179.854 89.4865Z" fill="#051934"/>
<path id="Vector_13" d="M118.875 103.836C125.696 103.836 131.226 98.5665 131.226 92.0659C131.226 85.5654 125.696 80.2957 118.875 80.2957C112.054 80.2957 106.525 85.5654 106.525 92.0659C106.525 98.5665 112.054 103.836 118.875 103.836Z" fill="#948181"/>
<path id="Vector_14" d="M282.78 98.5033C288.931 98.5033 293.917 94.0338 293.917 88.5204C293.917 83.007 288.931 78.5375 282.78 78.5375C276.629 78.5375 271.643 83.007 271.643 88.5204C271.643 94.0338 276.629 98.5033 282.78 98.5033Z" fill="#948181"/>
<g id="Vector_15" filter="url(#filter0_dd_1_2)">
<path d="M238.369 103.688C245.19 103.688 250.72 98.4184 250.72 91.9179C250.72 85.4174 245.19 80.1477 238.369 80.1477C231.548 80.1477 226.018 85.4174 226.018 91.9179C226.018 98.4184 231.548 103.688 238.369 103.688Z" fill="#948181"/>
</g>
</g>
</g>
<path id="Vector_16" d="M164.118 64.9812L168.018 59.3874L172.958 57.989H189.859L194.019 59.3874L197.795 64.9812L190.899 62.1843H171.556L164.118 64.9812Z" fill="#051934"/>
<g id="plane-wheels">
<g id="left-wheel">
<path id="Vector_17" d="M135.752 93.3299L136.808 115.026H134.238V117.482H141.423V115.026H139.327L139.477 93.3299H135.752Z" fill="#010109"/>
<path id="Vector_18" d="M133.066 110.718H133.066C134.143 110.718 135.016 111.501 135.016 112.467V119.692C135.016 120.657 134.143 121.44 133.066 121.44H133.066C131.989 121.44 131.116 120.657 131.116 119.692V112.467C131.116 111.501 131.989 110.718 133.066 110.718Z" fill="#010109"/>
<path id="Vector_19" d="M142.947 110.718H142.947C144.024 110.718 144.897 111.501 144.897 112.467V119.692C144.897 120.657 144.024 121.44 142.947 121.44H142.947C141.87 121.44 140.997 120.657 140.997 119.692V112.467C140.997 111.501 141.87 110.718 142.947 110.718Z" fill="#010109"/>
</g>
<g id="right-wheel">
<path id="Vector_20" d="M219.662 91.3978L218.606 113.094H221.177V115.55H213.992V113.094H216.087L215.938 91.3978H219.662Z" fill="#010109"/>
<path id="Vector_21" d="M222.251 110.718H222.251C221.174 110.718 220.301 111.501 220.301 112.467V119.692C220.301 120.657 221.174 121.44 222.251 121.44H222.251C223.328 121.44 224.201 120.657 224.201 119.692V112.467C224.201 111.501 223.328 110.718 222.251 110.718Z" fill="#010109"/>
<path id="Vector_22" d="M212.371 110.718H212.371C211.294 110.718 210.421 111.501 210.421 112.467V119.692C210.421 120.657 211.294 121.44 212.371 121.44H212.371C213.448 121.44 214.321 120.657 214.321 119.692V112.467C214.321 111.501 213.448 110.718 212.371 110.718Z" fill="#010109"/>
</g>
<g id="center-wheel">
<path id="Vector_23" d="M178.554 105.245L179.221 117.554H177.597V118.948H182.136V117.554H180.812L180.907 105.245H178.554Z" fill="#010109"/>
<path id="Vector_24" d="M176.803 115.58C177.494 115.58 178.054 115.97 178.054 116.451V120.051C178.054 120.532 177.494 120.922 176.803 120.922C176.112 120.922 175.552 120.532 175.552 120.051V116.451C175.552 115.97 176.112 115.58 176.803 115.58Z" fill="#010109"/>
<path id="Vector_25" d="M183.141 115.58C183.832 115.58 184.392 115.97 184.392 116.451V120.051C184.392 120.532 183.832 120.922 183.141 120.922C182.45 120.922 181.89 120.532 181.89 120.051V116.451C181.89 115.97 182.45 115.58 183.141 115.58V115.58Z" fill="#010109"/>
</g>
</g>
<path id="Vector_26" d="M173.58 54.5536L169.988 66.1467L170.68 66.319L174.273 54.7259L173.58 54.5536Z" fill="#948181"/>
<path id="Vector_27" d="M189.87 56.4032L189.165 56.5274L191.753 68.3337L192.458 68.2095L189.87 56.4032Z" fill="#948181"/>
<path id="Vector_28" d="M182.549 68.0483L181.431 52.4532L179.675 54.8836L179.994 68.5546L182.549 68.0483Z" fill="#948181"/>
<g id="outer propeller circle">
<path id="Vector_29" d="M118.961 103.012C125.112 103.012 130.098 98.5422 130.098 93.0288C130.098 87.5154 125.112 83.0459 118.961 83.0459C112.81 83.0459 107.824 87.5154 107.824 93.0288C107.824 98.5422 112.81 103.012 118.961 103.012Z" fill="#051934"/>
<path id="Vector_30" d="M76.0304 97.2152C81.2883 97.2152 85.5506 93.3945 85.5506 88.6814C85.5506 83.9684 81.2883 80.1477 76.0304 80.1477C70.7726 80.1477 66.5103 83.9684 66.5103 88.6814C66.5103 93.3945 70.7726 97.2152 76.0304 97.2152Z" fill="#051934"/>
<path id="Vector_31" d="M237.874 103.012C244.024 103.012 249.011 98.5422 249.011 93.0288C249.011 87.5154 244.024 83.0459 237.874 83.0459C231.723 83.0459 226.737 87.5154 226.737 93.0288C226.737 98.5422 231.723 103.012 237.874 103.012Z" fill="#051934"/>
</g>
<g id="motor propellers">
<path id="Vector_32" d="M75.8508 94.961C79.819 94.961 83.0359 92.0774 83.0359 88.5204C83.0359 84.9634 79.819 82.0798 75.8508 82.0798C71.8826 82.0798 68.6658 84.9634 68.6658 88.5204C68.6658 92.0774 71.8826 94.961 75.8508 94.961Z" fill="#1E0303"/>
<path id="Vector_33" d="M119.141 100.758C123.605 100.758 127.224 97.5135 127.224 93.5119C127.224 89.5102 123.605 86.2662 119.141 86.2662C114.677 86.2662 111.058 89.5102 111.058 93.5119C111.058 97.5135 114.677 100.758 119.141 100.758Z" fill="#1E0303"/>
<path id="Vector_34" d="M238.053 100.113C242.518 100.113 246.137 96.8695 246.137 92.8678C246.137 88.8661 242.518 85.6221 238.053 85.6221C233.589 85.6221 229.97 88.8661 229.97 92.8678C229.97 96.8695 233.589 100.113 238.053 100.113Z" fill="#1E0303"/>
</g>
<path id="Vector_35" d="M282.601 97.2152C287.858 97.2152 292.121 93.3945 292.121 88.6814C292.121 83.9684 287.858 80.1477 282.601 80.1477C277.343 80.1477 273.08 83.9684 273.08 88.6814C273.08 93.3945 277.343 97.2152 282.601 97.2152Z" fill="#051934"/>
<path id="Vector_36" d="M282.78 94.961C286.748 94.961 289.965 92.0774 289.965 88.5204C289.965 84.9634 286.748 82.0798 282.78 82.0798C278.812 82.0798 275.595 84.9634 275.595 88.5204C275.595 92.0774 278.812 94.961 282.78 94.961Z" fill="#1E0303"/>
<g id="propellers">
<path id="Star 5" d="M282.652 75.1431C282.82 75.1431 282.962 75.2677 282.984 75.4345L284.537 87.1043C284.567 87.3292 284.806 87.4603 285.012 87.3639L298.926 80.8412C299.075 80.7717 299.251 80.8193 299.345 80.9538L299.572 81.2809C299.681 81.4382 299.636 81.6548 299.474 81.7566L286.732 89.7541C286.515 89.8902 286.525 90.2093 286.749 90.3326L299.883 97.5475C300.036 97.6318 300.099 97.82 300.027 97.9796L299.904 98.2538C299.83 98.4172 299.641 98.4939 299.474 98.4281L285.046 92.734C284.828 92.6482 284.592 92.8055 284.587 93.0393L284.305 106.516C284.302 106.676 284.186 106.811 284.029 106.84L283.298 106.97C283.107 107.005 282.927 106.871 282.905 106.678L281.347 93.0225C281.321 92.794 281.078 92.6588 280.87 92.757L267.05 99.2824C266.911 99.3482 266.744 99.3107 266.647 99.1913L266.36 98.8402C266.232 98.6838 266.27 98.4507 266.441 98.3434L279.19 90.342C279.399 90.2104 279.399 89.9049 279.19 89.7733L266.441 81.772C266.27 81.6646 266.232 81.4315 266.36 81.2752L266.647 80.924C266.744 80.8047 266.911 80.7671 267.05 80.8329L280.843 87.3453C281.058 87.4471 281.308 87.2981 281.321 87.0601L281.957 75.4604C281.966 75.2824 282.114 75.1431 282.292 75.1431H282.652Z" fill="#615B5B"/>
<path id="Star 6" d="M77.0051 74.8074C77.1734 74.8074 77.3157 74.932 77.3379 75.0989L78.8902 86.7686C78.9201 86.9935 79.16 87.1246 79.3655 87.0283L93.28 80.5055C93.4282 80.4361 93.605 80.4836 93.6983 80.6181L93.9252 80.9452C94.0344 81.1025 93.9901 81.3191 93.8279 81.4209L81.0858 89.4184C80.8689 89.5545 80.8782 89.8736 81.1027 89.9969L94.2363 97.2118C94.3898 97.2961 94.4527 97.4843 94.3807 97.6439L94.2571 97.9181C94.1835 98.0815 93.9946 98.1582 93.8279 98.0924L79.3994 92.3983C79.1819 92.3125 78.9454 92.4698 78.9405 92.7036L78.6589 106.18C78.6555 106.34 78.5399 106.476 78.3824 106.504L77.6513 106.635C77.4605 106.669 77.2805 106.535 77.2586 106.342L75.7007 92.6868C75.6746 92.4584 75.4318 92.3231 75.2239 92.4213L61.4037 98.9467C61.2643 99.0125 61.098 98.975 61.0005 98.8556L60.7134 98.5045C60.5856 98.3481 60.6238 98.1151 60.7948 98.0077L73.5431 90.0063C73.7527 89.8747 73.7527 89.5692 73.5431 89.4377L60.7948 81.4363C60.6238 81.3289 60.5856 81.0959 60.7134 80.9395L61.0005 80.5883C61.098 80.469 61.2643 80.4314 61.4037 80.4972L75.1964 87.0097C75.4119 87.1114 75.6619 86.9624 75.6749 86.7245L76.3102 75.1248C76.32 74.9468 76.4672 74.8074 76.6454 74.8074H77.0051Z" fill="#615B5B"/>
<path id="Star 7" d="M119.47 81.1855C119.638 81.1855 119.781 81.3101 119.803 81.4769L121.268 92.4932C121.298 92.7182 121.538 92.8492 121.743 92.7529L134.89 86.5901C135.039 86.5206 135.215 86.5682 135.309 86.7027L135.505 86.9851C135.614 87.1424 135.569 87.359 135.407 87.4607L123.377 95.0115C123.16 95.1476 123.169 95.4667 123.394 95.59L135.795 102.403C135.949 102.487 136.012 102.675 135.94 102.835L135.836 103.064C135.763 103.228 135.574 103.305 135.407 103.239L121.777 97.8599C121.56 97.7741 121.323 97.9314 121.319 98.1652L121.053 110.893C121.049 111.053 120.934 111.188 120.776 111.216L120.116 111.334C119.925 111.369 119.745 111.235 119.724 111.042L118.253 98.1484C118.227 97.9199 117.984 97.7847 117.776 97.8829L104.718 104.048C104.578 104.114 104.412 104.077 104.315 103.957L104.064 103.651C103.936 103.494 103.974 103.261 104.145 103.154L116.182 95.5994C116.392 95.4678 116.392 95.1623 116.182 95.0308L104.145 87.4761C103.974 87.3687 103.936 87.1357 104.064 86.9793L104.315 86.6728C104.412 86.5535 104.578 86.5159 104.718 86.5817L117.748 92.7343C117.964 92.8361 118.214 92.6871 118.227 92.4491L118.826 81.5028C118.836 81.3249 118.983 81.1855 119.162 81.1855H119.47Z" fill="#615B5B"/>
<path id="Star 8" d="M238.415 79.5071C238.584 79.5071 238.726 79.6317 238.748 79.7985L240.214 90.8148C240.243 91.0397 240.483 91.1708 240.689 91.0745L253.836 84.9116C253.984 84.8421 254.161 84.8897 254.254 85.0242L254.45 85.3066C254.559 85.4639 254.515 85.6805 254.353 85.7823L242.322 93.3331C242.105 93.4692 242.115 93.7883 242.339 93.9116L254.741 100.724C254.894 100.809 254.957 100.997 254.885 101.157L254.782 101.386C254.708 101.549 254.519 101.626 254.353 101.56L240.723 96.1815C240.505 96.0956 240.269 96.2529 240.264 96.4867L239.998 109.214C239.995 109.374 239.879 109.51 239.721 109.538L239.062 109.656C238.871 109.69 238.691 109.556 238.669 109.364L237.198 96.4699C237.172 96.2415 236.929 96.1063 236.721 96.2044L223.663 102.37C223.524 102.436 223.357 102.398 223.26 102.279L223.009 101.972C222.881 101.816 222.92 101.583 223.091 101.476L235.127 93.921C235.337 93.7894 235.337 93.4839 235.127 93.3523L223.091 85.7977C222.92 85.6903 222.881 85.4572 223.009 85.3009L223.26 84.9944C223.357 84.875 223.524 84.8375 223.663 84.9033L236.694 91.0559C236.909 91.1576 237.159 91.0086 237.172 90.7707L237.772 79.8244C237.781 79.6464 237.929 79.5071 238.107 79.5071H238.415Z" fill="#615B5B"/>
</g>
<g id="plane-lights">
<ellipse id="tail-light" cx="167.758" cy="33.5701" rx="0.335689" ry="1.00707" transform="rotate(22 167.758 33.5701)" fill="#4F5856"/>
<ellipse id="left-light" cx="20.6935" cy="78.6678" rx="0.503534" ry="1.5106" transform="rotate(-90 20.6935 78.6678)" fill="#4F5856"/>
<ellipse id="right-light" cx="338.591" cy="76.6537" rx="0.503534" ry="1.5106" transform="rotate(-90 338.591 76.6537)" fill="#4F5856"/>
</g>
</g>
<defs>
<filter id="filter0_dd_1_2" x="224.676" y="80.1477" width="27.3869" height="26.2259" filterUnits="userSpaceOnUse" color-interpolation-filters="sRGB">
<feFlood flood-opacity="0" result="BackgroundImageFix"/>
<feColorMatrix in="SourceAlpha" type="matrix" values="0 0 0 0 0 0 0 0 0 0 0 0 0 0 0 0 0 0 127 0" result="hardAlpha"/>
<feOffset dy="1.34276"/>
<feGaussianBlur stdDeviation="0.671378"/>
<feComposite in2="hardAlpha" operator="out"/>
<feColorMatrix type="matrix" values="0 0 0 0 0 0 0 0 0 0 0 0 0 0 0 0 0 0 0.25 0"/>
<feBlend mode="normal" in2="BackgroundImageFix" result="effect1_dropShadow_1_2"/>
<feColorMatrix in="SourceAlpha" type="matrix" values="0 0 0 0 0 0 0 0 0 0 0 0 0 0 0 0 0 0 127 0" result="hardAlpha"/>
<feOffset dy="1.34276"/>
<feGaussianBlur stdDeviation="0.671378"/>
<feComposite in2="hardAlpha" operator="out"/>
<feColorMatrix type="matrix" values="0 0 0 0 0 0 0 0 0 0 0 0 0 0 0 0 0 0 0.25 0"/>
<feBlend mode="normal" in2="effect1_dropShadow_1_2" result="effect2_dropShadow_1_2"/>
<feBlend mode="normal" in="SourceGraphic" in2="effect2_dropShadow_1_2" result="shape"/>
</filter>
<clipPath id="clip0_1_2">
<rect width="357" height="136" fill="white" transform="translate(0.048584 0.284452)"/>
</clipPath>
</defs>
</svg>
