<svg xmlns="http://www.w3.org/2000/svg" xmlns:xlink="http://www.w3.org/1999/xlink" width="500" zoomAndPan="magnify" viewBox="0 0 375 374.999991" height="500" preserveAspectRatio="xMidYMid meet" version="1.0"><defs><filter x="0%" y="0%" width="100%" height="100%" id="99b856a26a"><feColorMatrix values="0 0 0 0 1 0 0 0 0 1 0 0 0 0 1 0 0 0 1 0" color-interpolation-filters="sRGB"/></filter><mask id="c996942aab"><g filter="url(#99b856a26a)"><rect x="-37.5" width="450" fill="#000000" y="-37.499999" height="449.999989" fill-opacity="0.6863"/></g></mask><clipPath id="20ee3d60f2"><path d="M 53 31 L 363 31 L 363 338 L 53 338 Z M 53 31 " clip-rule="nonzero"/></clipPath><clipPath id="62fe301b31"><path d="M 187.152344 -5.539062 L 377.542969 184.847656 L 187.683594 374.707031 L -2.703125 184.316406 Z M 187.152344 -5.539062 " clip-rule="nonzero"/></clipPath><clipPath id="ca717a8c6f"><path d="M 187.152344 -5.539062 L 377.542969 184.847656 L 187.683594 374.707031 L -2.703125 184.316406 Z M 187.152344 -5.539062 " clip-rule="nonzero"/></clipPath><clipPath id="767a4844f5"><rect x="0" width="368" y="0" height="370"/></clipPath></defs><g mask="url(#c996942aab)"><g transform="matrix(1, 0, 0, 1, 0, 0)"><g clip-path="url(#767a4844f5)"><g clip-path="url(#20ee3d60f2)"><g clip-path="url(#62fe301b31)"><g clip-path="url(#ca717a8c6f)"><path fill="#000000" d="M 150.25 32.273438 L 165.824219 31.871094 C 174.71875 31.871094 180.660156 40.894531 180.660156 40.894531 L 199.828125 66.152344 L 222.09375 66.382812 C 233.84375 66.480469 230.285156 80.742188 224.882812 81.492188 L 212.386719 82.433594 L 231.875 110.789062 L 249.46875 109.433594 C 268.527344 107.726562 265.628906 123.539062 256.207031 125.128906 L 244.320312 126.527344 L 275.566406 167.15625 C 336.230469 168.292969 361.195312 168.566406 361.988281 184.027344 C 362.789062 199.59375 333.597656 199.832031 276.425781 200.707031 L 244.476562 242.875 L 258.285156 244.125 C 266.4375 244.863281 268.386719 258.699219 252.503906 258.285156 L 232.371094 257.703125 L 212.480469 286.332031 L 223.933594 287.820312 C 234.207031 288.980469 235.113281 301.945312 219.132812 302.480469 L 198.484375 302.566406 C 197.746094 302.457031 180.5625 327.199219 180.5625 327.199219 C 172.617188 339.800781 163.074219 337.761719 163.074219 337.761719 L 149.855469 336.863281 L 198.863281 234.210938 C 203.308594 225.316406 204.925781 212.4375 194.65625 203.882812 C 189.15625 199.441406 168.101562 195.367188 164.390625 195.6875 L 107.308594 194.597656 C 106.035156 194.378906 75.390625 235.460938 75.390625 235.460938 C 74.332031 236.519531 53.003906 239.398438 53.003906 239.398438 L 67.40625 188.132812 L 54.070312 183.269531 L 67.683594 180.296875 L 53.25 128.363281 L 74.800781 131.699219 C 79.347656 139 106.921875 173.566406 107.875 173.886719 C 107.875 173.886719 158.296875 174.070312 161.257812 174 C 178.410156 173.570312 184.507812 173.09375 190.113281 170.019531 C 195.734375 166.945312 199.9375 158.410156 194.878906 137.230469 C 187.90625 108.011719 150.25 32.273438 150.25 32.273438 Z M 150.25 32.273438 " fill-opacity="1" fill-rule="nonzero"/></g></g></g></g></g></g></svg>