<svg width="600" height="300" viewBox="0 0 600 300" fill="none" xmlns="http://www.w3.org/2000/svg">
<g id="whiteAirplane 1">
<path id="Vector" d="M552.042 135.052L569.969 135.422L573.49 141.641C575.469 141.818 576.818 141.979 576.818 141.979C582.292 142.333 586.63 146.885 586.63 152.453C586.63 157.839 582.568 162.281 577.339 162.88C571.391 163.984 566.146 164.266 561.62 163.724C548.667 160.396 544.448 147.286 557.844 142.276L552.042 135.052Z" fill="#948181"/>
<path id="Vector_2" fill-rule="evenodd" clip-rule="evenodd" d="M566.177 152.411C566.177 146.943 570.609 142.505 576.083 142.505C581.552 142.505 585.99 146.943 585.99 152.411C585.99 157.885 581.552 162.323 576.083 162.323C570.609 162.323 566.177 157.885 566.177 152.411Z" fill="#051934"/>
<path id="Vector_3" fill-rule="evenodd" clip-rule="evenodd" d="M576.719 144.391C580.974 144.391 584.422 147.839 584.422 152.089C584.422 156.344 580.974 159.792 576.719 159.792C572.469 159.792 569.021 156.344 569.021 152.089C569.021 147.839 572.469 144.391 576.719 144.391Z" fill="#1E0303"/>
<path id="Vector_4" fill-rule="evenodd" clip-rule="evenodd" d="M565.766 156.578L568.99 161.422C561.219 161.12 555.193 159.036 550.911 155.177C556.464 156.203 561.417 156.667 565.766 156.578Z" fill="#051934"/>
<path id="Vector_5" fill-rule="evenodd" clip-rule="evenodd" d="M574.964 145.438C583.089 144.365 585.609 154.479 580.286 157.984C583.109 151.839 581.339 147.656 574.964 145.438Z" fill="#051934"/>
<path id="Vector_6" d="M504.318 143.891L527.427 144.359L531.964 152.38C534.521 152.609 536.255 152.818 536.255 152.818C543.318 153.271 548.906 159.141 548.906 166.323C548.906 173.271 543.677 178.99 536.932 179.76C529.26 181.193 522.505 181.552 516.667 180.849C499.969 176.562 494.526 159.661 511.797 153.203L504.318 143.891Z" fill="#948181"/>
<path id="Vector_7" fill-rule="evenodd" clip-rule="evenodd" d="M522.536 166.271C522.536 159.214 528.255 153.495 535.312 153.495C542.365 153.495 548.083 159.214 548.083 166.271C548.083 173.323 542.365 179.042 535.312 179.042C528.255 179.042 522.536 173.323 522.536 166.271Z" fill="#051934"/>
<path id="Vector_8" fill-rule="evenodd" clip-rule="evenodd" d="M536.135 155.922C541.62 155.922 546.062 160.37 546.062 165.854C546.062 171.333 541.62 175.781 536.135 175.781C530.656 175.781 526.208 171.333 526.208 165.854C526.208 160.37 530.656 155.922 536.135 155.922Z" fill="#1E0303"/>
<path id="Vector_9" fill-rule="evenodd" clip-rule="evenodd" d="M522.01 171.641L526.167 177.885C516.146 177.495 508.375 174.813 502.859 169.839C510.016 171.151 516.401 171.755 522.01 171.641Z" fill="#051934"/>
<path id="Vector_10" fill-rule="evenodd" clip-rule="evenodd" d="M533.87 157.276C544.344 155.896 547.599 168.932 540.729 173.448C544.375 165.531 542.089 160.141 533.87 157.276Z" fill="#051934"/>
<path id="Vector_11" d="M165.083 201.109L184.854 201.516L188.734 208.375C190.922 208.568 192.406 208.75 192.406 208.75C198.453 209.135 203.229 214.161 203.229 220.297C203.229 226.245 198.755 231.141 192.99 231.802C186.422 233.021 180.641 233.333 175.646 232.729C161.359 229.062 156.708 214.604 171.484 209.078L165.083 201.109Z" fill="#948181"/>
<path id="Vector_12" fill-rule="evenodd" clip-rule="evenodd" d="M180.672 220.255C180.672 214.224 185.568 209.328 191.599 209.328C197.635 209.328 202.526 214.224 202.526 220.255C202.526 226.292 197.635 231.182 191.599 231.182C185.568 231.182 180.672 226.292 180.672 220.255Z" fill="#051934"/>
<path id="Vector_13" fill-rule="evenodd" clip-rule="evenodd" d="M192.302 211.406C196.995 211.406 200.797 215.208 200.797 219.901C200.797 224.594 196.995 228.396 192.302 228.396C187.615 228.396 183.812 224.594 183.812 219.901C183.812 215.208 187.615 211.406 192.302 211.406Z" fill="#1E0303"/>
<path id="Vector_14" fill-rule="evenodd" clip-rule="evenodd" d="M180.219 224.854C180.667 226.781 181.854 228.557 183.776 230.198C175.203 229.859 168.552 227.563 163.833 223.307C169.958 224.438 175.422 224.953 180.219 224.854Z" fill="#020215"/>
<path id="Vector_15" fill-rule="evenodd" clip-rule="evenodd" d="M190.365 212.563C199.328 211.385 202.109 222.536 196.234 226.401C199.354 219.625 197.396 215.016 190.365 212.563Z" fill="#051934"/>
<path id="Vector_16" fill-rule="evenodd" clip-rule="evenodd" d="M276.566 144.636C408.701 103.73 482.915 98.0374 499.201 127.574C528.581 150.313 521.956 177.569 478.847 194.235C467.258 198.256 445.201 202.183 412.68 206.011C385.842 218.876 346.159 219.813 293.628 208.808C288.748 207.376 275.425 197.558 246.925 177.168C243.711 172.277 243.144 166.72 245.232 160.506L276.566 144.636Z" fill="#948181"/>
<path id="Vector_17" fill-rule="evenodd" clip-rule="evenodd" d="M282.203 149.354C241.182 56.7448 240.385 42.4792 224.922 48.1667L254.562 161.932L282.203 149.354Z" fill="#948181"/>
<path id="Vector_18" fill-rule="evenodd" clip-rule="evenodd" d="M362.406 179.677C382.12 189.38 381.307 194.974 359.786 203.151L8.02083 205.234C1.06249 204.078 0.244785 201.484 8.11458 200.807L362.406 179.677Z" fill="#948181"/>
<path id="Vector_19" fill-rule="evenodd" clip-rule="evenodd" d="M258.922 166.859C256.781 168.292 144.089 181.578 144.089 181.578C138.375 183.359 138.604 184.26 144.76 184.286L260.349 175.406C266.771 173.214 266.401 167.422 258.922 166.859Z" fill="#948181"/>
<g id="Group">
<path id="Vector_20" fill-rule="evenodd" clip-rule="evenodd" d="M507.479 162.349L599.469 126.911L596.693 123.677L507.802 143.484L507.479 162.349Z" fill="#948181"/>
</g>
<path id="Vector_21" fill-rule="evenodd" clip-rule="evenodd" d="M468.229 127.484C478.109 124.99 489.818 123.13 497.839 122.38C499.25 123.516 499.99 124.313 501.615 126.906C499.068 127.484 477.953 130.281 467.24 133.917L468.229 127.484Z" fill="#020215"/>
<path id="Vector_22" fill-rule="evenodd" clip-rule="evenodd" d="M513.823 161.969C492.906 171.109 462.016 171.156 418.953 163.729C425.703 171.411 406.859 175.516 362.438 176.031C386.448 182.182 393.422 190.99 383.354 202.448C464.818 202.661 507.625 187.432 513.823 161.969Z" fill="#020215"/>
<path id="Vector_23" fill-rule="evenodd" clip-rule="evenodd" d="M405.745 205.25C402.005 205.573 367.391 204.276 367.391 204.276C359.203 208.438 339.536 209.302 308.391 206.875C308.391 206.875 361.052 220.854 405.745 205.25Z" fill="#020215"/>
<path id="Vector_24" fill-rule="evenodd" clip-rule="evenodd" d="M505.906 154.177C505.906 150.641 508.776 147.776 512.312 147.776C515.849 147.776 518.714 150.641 518.714 154.177C518.714 157.714 515.849 160.578 512.312 160.578C508.776 160.578 505.906 157.714 505.906 154.177Z" fill="#051934"/>
<path id="Vector_25" fill-rule="evenodd" clip-rule="evenodd" d="M515.563 145.734C512.964 139.74 508.375 134.526 501.807 130.104C493.943 129.479 483.776 131.573 471.302 136.401C488.651 135.651 503.406 138.766 515.563 145.734Z" fill="#051934"/>
<path id="Vector_26" fill-rule="evenodd" clip-rule="evenodd" d="M473.432 124.885L473.245 134.224L475.448 133.781L474.693 124.818L473.432 124.885Z" fill="#948181"/>
<path id="Vector_27" fill-rule="evenodd" clip-rule="evenodd" d="M482.672 122.724C482.609 122.531 483.365 131.073 483.365 131.073L484.37 130.885L483.677 122.344C483.677 122.344 482.734 122.911 482.672 122.724Z" fill="#948181"/>
<path id="Vector_28" fill-rule="evenodd" clip-rule="evenodd" d="M490.938 121.464L493.839 128.911L494.615 128.724L491.823 121.339L490.938 121.464Z" fill="#948181"/>
<path id="Vector_29" fill-rule="evenodd" clip-rule="evenodd" d="M278.427 139.557L274.828 140.953C237.568 52.1456 235.953 47.7758 227 44.0206C236.635 43.5571 240.005 50.1717 278.427 139.557Z" fill="#051934"/>
<path id="Vector_30" fill-rule="evenodd" clip-rule="evenodd" d="M467.938 130.932L472.688 126.932L472.479 129.141L467.708 133.526L467.938 130.932Z" fill="#051934"/>
<path id="Vector_31" fill-rule="evenodd" clip-rule="evenodd" d="M468.391 129.693L471.734 126.781L468.776 127.885L468.391 129.693Z" fill="#051934"/>
<path id="Vector_32" fill-rule="evenodd" clip-rule="evenodd" d="M475.609 129.068L482.078 124.844L480.286 125.115L475.542 127.771L475.609 129.068Z" fill="#051934"/>
<path id="Vector_33" fill-rule="evenodd" clip-rule="evenodd" d="M475.557 129.984L482.573 125.198L482.391 126.37L475.714 131.167L475.557 129.984Z" fill="#051934"/>
<path id="Vector_34" fill-rule="evenodd" clip-rule="evenodd" d="M476.458 131.224L482.776 126.792L482.557 127.589L478.089 130.839L476.458 131.224Z" fill="#051934"/>
<path id="Vector_35" fill-rule="evenodd" clip-rule="evenodd" d="M374.562 191.891L30.9114 201.938L372.99 186.203C376.042 187.75 376.562 189.646 374.562 191.891Z" fill="#020215"/>
<path id="Vector_36" d="M259.031 202.177L282.141 202.651L286.677 210.667C289.234 210.896 290.974 211.104 290.974 211.104C298.031 211.557 303.625 217.432 303.625 224.609C303.625 231.552 298.391 237.276 291.646 238.052C283.974 239.479 277.219 239.844 271.38 239.141C254.682 234.849 249.24 217.948 266.51 211.49L259.031 202.177Z" fill="#948181"/>
<path id="Vector_37" fill-rule="evenodd" clip-rule="evenodd" d="M277.255 224.557C277.255 217.5 282.974 211.781 290.026 211.781C297.083 211.781 302.802 217.5 302.802 224.557C302.802 231.609 297.083 237.328 290.026 237.328C282.974 237.328 277.255 231.609 277.255 224.557Z" fill="#051934"/>
<path id="Vector_38" fill-rule="evenodd" clip-rule="evenodd" d="M290.849 214.214C296.339 214.214 300.781 218.656 300.781 224.141C300.781 229.625 296.339 234.068 290.849 234.068C285.37 234.068 280.922 229.625 280.922 224.141C280.922 218.656 285.37 214.214 290.849 214.214Z" fill="#1E0303"/>
<path id="Vector_39" fill-rule="evenodd" clip-rule="evenodd" d="M276.724 229.927C277.641 232.349 279.026 234.432 280.88 236.172C270.859 235.781 263.089 233.099 257.573 228.12C264.729 229.438 271.115 230.042 276.724 229.927Z" fill="#020215"/>
<path id="Vector_40" fill-rule="evenodd" clip-rule="evenodd" d="M288.583 215.563C299.057 214.182 302.313 227.219 295.443 231.734C299.089 223.818 296.802 218.427 288.583 215.563Z" fill="#051934"/>
<path id="Vector_41" fill-rule="evenodd" clip-rule="evenodd" d="M242.422 203.219H233.813L226.526 206.573C234.807 209.922 242.188 207.74 242.422 203.219Z" fill="#948181"/>
<path id="Vector_42" fill-rule="evenodd" clip-rule="evenodd" d="M215.224 202.052H206.615L199.333 205.396C207.609 208.755 214.995 206.573 215.224 202.052Z" fill="#948181"/>
<path id="Vector_43" fill-rule="evenodd" clip-rule="evenodd" d="M520.609 152.042L596.786 126.776L595.964 125.677L519.979 146.979L520.609 152.042Z" fill="#051934"/>
<path id="Vector_44" fill-rule="evenodd" clip-rule="evenodd" d="M428.292 130.589L298.292 155.214L298.708 157.927L428.078 134.135L428.292 130.589Z" fill="#051934"/>
<path id="Vector_45" fill-rule="evenodd" clip-rule="evenodd" d="M300.875 154L301.198 158.083L301.917 157.922L301.677 153.766L300.875 154Z" fill="#948181"/>
<path id="Vector_46" fill-rule="evenodd" clip-rule="evenodd" d="M305.911 157.219L306.63 157.057L306.401 152.88L305.599 153.12L305.911 157.219Z" fill="#948181"/>
<path id="Vector_47" fill-rule="evenodd" clip-rule="evenodd" d="M310.63 156.354L311.349 156.193L311.125 151.995L310.328 152.24L310.63 156.354Z" fill="#948181"/>
<path id="Vector_48" fill-rule="evenodd" clip-rule="evenodd" d="M315.349 155.484L316.068 155.323L315.854 151.115L315.052 151.354L315.349 155.484Z" fill="#948181"/>
<path id="Vector_49" fill-rule="evenodd" clip-rule="evenodd" d="M320.068 154.62L320.786 154.458L320.578 150.229L319.776 150.474L320.068 154.62Z" fill="#948181"/>
<path id="Vector_50" fill-rule="evenodd" clip-rule="evenodd" d="M324.786 153.75L325.505 153.589L325.302 149.349L324.5 149.583L324.786 153.75Z" fill="#948181"/>
<path id="Vector_51" fill-rule="evenodd" clip-rule="evenodd" d="M329.505 152.885L330.224 152.724L330.031 148.464L329.229 148.703L329.505 152.885Z" fill="#948181"/>
<path id="Vector_52" fill-rule="evenodd" clip-rule="evenodd" d="M334.224 152.021L334.943 151.859L334.755 147.578L333.953 147.823L334.224 152.021Z" fill="#948181"/>
<path id="Vector_53" fill-rule="evenodd" clip-rule="evenodd" d="M339.474 151.057L344.38 150.125L344.203 145.812L339.219 146.823L339.474 151.057Z" fill="#948181"/>
<path id="Vector_54" fill-rule="evenodd" clip-rule="evenodd" d="M348.375 149.422L349.094 149.26L348.927 144.932L348.13 145.172L348.375 149.422Z" fill="#948181"/>
<path id="Vector_55" fill-rule="evenodd" clip-rule="evenodd" d="M353.094 148.557L353.812 148.396L353.656 144.047L352.859 144.286L353.094 148.557Z" fill="#948181"/>
<path id="Vector_56" fill-rule="evenodd" clip-rule="evenodd" d="M357.813 147.688L358.536 147.526L358.38 143.167L357.583 143.401L357.813 147.688Z" fill="#948181"/>
<path id="Vector_57" fill-rule="evenodd" clip-rule="evenodd" d="M362.531 146.823L363.25 146.661L363.104 142.281L362.307 142.521L362.531 146.823Z" fill="#948181"/>
<path id="Vector_58" fill-rule="evenodd" clip-rule="evenodd" d="M367.25 145.953L367.969 145.797L367.833 141.396L367.031 141.635L367.25 145.953Z" fill="#948181"/>
<path id="Vector_59" fill-rule="evenodd" clip-rule="evenodd" d="M371.969 145.089L372.688 144.927L372.557 140.516L371.755 140.755L371.969 145.089Z" fill="#948181"/>
<path id="Vector_60" fill-rule="evenodd" clip-rule="evenodd" d="M376.687 144.224L377.406 144.062L377.281 139.63L376.479 139.87L376.687 144.224Z" fill="#948181"/>
<path id="Vector_61" fill-rule="evenodd" clip-rule="evenodd" d="M381.401 143.354L382.125 143.198L382.01 138.75L381.208 138.99L381.401 143.354Z" fill="#948181"/>
<path id="Vector_62" fill-rule="evenodd" clip-rule="evenodd" d="M385.521 142.479L391.562 141.464L391.458 136.979L385.339 138.078L385.521 142.479Z" fill="#948181"/>
<path id="Vector_63" fill-rule="evenodd" clip-rule="evenodd" d="M395.562 140.76L396.281 140.599L396.182 136.099L395.385 136.339L395.562 140.76Z" fill="#948181"/>
<path id="Vector_64" fill-rule="evenodd" clip-rule="evenodd" d="M400.281 139.891L401 139.729L400.911 135.214L400.115 135.453L400.281 139.891Z" fill="#948181"/>
<path id="Vector_65" fill-rule="evenodd" clip-rule="evenodd" d="M404.995 139.026L405.714 138.865L405.635 134.328L404.839 134.573L404.995 139.026Z" fill="#948181"/>
<path id="Vector_66" fill-rule="evenodd" clip-rule="evenodd" d="M409.714 138.161L410.432 138L410.359 133.448L409.562 133.688L409.714 138.161Z" fill="#948181"/>
<path id="Vector_67" fill-rule="evenodd" clip-rule="evenodd" d="M414.432 137.292L415.151 137.135L415.083 132.568L414.286 132.802L414.432 137.292Z" fill="#948181"/>
<path id="Vector_68" fill-rule="evenodd" clip-rule="evenodd" d="M419.146 136.427L419.87 136.266L419.807 131.682L419.01 131.922L419.146 136.427Z" fill="#948181"/>
<path id="Vector_69" fill-rule="evenodd" clip-rule="evenodd" d="M423.74 131.036L423.865 135.562L424.589 135.401L424.536 130.797L423.74 131.036Z" fill="#948181"/>
<path id="Vector_70" fill-rule="evenodd" clip-rule="evenodd" d="M426.833 148.12L296.062 168.198L296.385 170.927L426.505 151.656L426.833 148.12Z" fill="#051934"/>
<path id="Vector_71" fill-rule="evenodd" clip-rule="evenodd" d="M298.682 167.078L298.859 171.161L299.583 171.031L299.49 166.865L298.682 167.078Z" fill="#948181"/>
<path id="Vector_72" fill-rule="evenodd" clip-rule="evenodd" d="M303.604 170.464L304.328 170.328L304.245 166.146L303.438 166.359L303.604 170.464Z" fill="#948181"/>
<path id="Vector_73" fill-rule="evenodd" clip-rule="evenodd" d="M308.349 169.766L309.078 169.63L309 165.427L308.188 165.641L308.349 169.766Z" fill="#948181"/>
<path id="Vector_74" fill-rule="evenodd" clip-rule="evenodd" d="M313.099 169.063L313.823 168.927L313.75 164.714L312.943 164.922L313.099 169.063Z" fill="#948181"/>
<path id="Vector_75" fill-rule="evenodd" clip-rule="evenodd" d="M317.844 168.359L318.568 168.224L318.505 163.995L317.698 164.208L317.844 168.359Z" fill="#948181"/>
<path id="Vector_76" fill-rule="evenodd" clip-rule="evenodd" d="M322.589 167.656L323.312 167.526L323.255 163.276L322.448 163.484L322.589 167.656Z" fill="#948181"/>
<path id="Vector_77" fill-rule="evenodd" clip-rule="evenodd" d="M327.333 166.958L328.057 166.823L328.01 162.557L327.203 162.771L327.333 166.958Z" fill="#948181"/>
<path id="Vector_78" fill-rule="evenodd" clip-rule="evenodd" d="M332.078 166.26L332.802 166.125L332.766 161.839L331.958 162.052L332.078 166.26Z" fill="#948181"/>
<path id="Vector_79" fill-rule="evenodd" clip-rule="evenodd" d="M346.318 164.151L347.042 164.021L347.026 159.688L346.214 159.896L346.318 164.151Z" fill="#948181"/>
<path id="Vector_80" fill-rule="evenodd" clip-rule="evenodd" d="M351.062 163.453L351.786 163.318L351.781 158.969L350.969 159.182L351.062 163.453Z" fill="#948181"/>
<path id="Vector_81" fill-rule="evenodd" clip-rule="evenodd" d="M355.807 162.755L356.531 162.62V158.25L355.724 158.464L355.807 162.755Z" fill="#948181"/>
<path id="Vector_82" fill-rule="evenodd" clip-rule="evenodd" d="M360.552 162.052L361.276 161.917L361.281 157.536L360.479 157.745L360.552 162.052Z" fill="#948181"/>
<path id="Vector_83" fill-rule="evenodd" clip-rule="evenodd" d="M365.297 161.349L366.021 161.214L366.036 156.818L365.229 157.026L365.297 161.349Z" fill="#948181"/>
<path id="Vector_84" fill-rule="evenodd" clip-rule="evenodd" d="M370.042 160.646L370.771 160.516L370.792 156.094L369.984 156.312L370.042 160.646Z" fill="#948181"/>
<path id="Vector_85" fill-rule="evenodd" clip-rule="evenodd" d="M374.786 159.948L375.51 159.812L375.547 155.38L374.74 155.589L374.786 159.948Z" fill="#948181"/>
<path id="Vector_86" fill-rule="evenodd" clip-rule="evenodd" d="M379.536 159.245L380.26 159.115L380.297 154.661L379.49 154.875L379.536 159.245Z" fill="#948181"/>
<path id="Vector_87" fill-rule="evenodd" clip-rule="evenodd" d="M393.771 157.141L394.495 157.01L394.562 152.505L393.75 152.719L393.771 157.141Z" fill="#948181"/>
<path id="Vector_88" fill-rule="evenodd" clip-rule="evenodd" d="M398.516 156.443L399.245 156.307L399.313 151.792L398.505 152L398.516 156.443Z" fill="#948181"/>
<path id="Vector_89" fill-rule="evenodd" clip-rule="evenodd" d="M403.26 155.745L403.984 155.609L404.062 151.073L403.26 151.286V155.745Z" fill="#948181"/>
<path id="Vector_90" fill-rule="evenodd" clip-rule="evenodd" d="M408.01 155.042L408.729 154.906L408.818 150.354L408.01 150.568V155.042Z" fill="#948181"/>
<path id="Vector_91" fill-rule="evenodd" clip-rule="evenodd" d="M412.75 154.339L413.479 154.203L413.573 149.635L412.766 149.849L412.75 154.339Z" fill="#948181"/>
<path id="Vector_92" fill-rule="evenodd" clip-rule="evenodd" d="M417.495 153.641L418.219 153.505L418.323 148.917L417.516 149.13L417.495 153.641Z" fill="#948181"/>
<path id="Vector_93" fill-rule="evenodd" clip-rule="evenodd" d="M422.271 148.411L422.24 152.938L422.969 152.802L423.078 148.203L422.271 148.411Z" fill="#948181"/>
<path id="Vector_94" fill-rule="evenodd" clip-rule="evenodd" d="M384.141 156.703L384.865 156.573L384.901 152.12L384.094 152.333L384.141 156.703Z" fill="#948181"/>
<path id="Vector_95" fill-rule="evenodd" clip-rule="evenodd" d="M389.281 157.802L390.01 157.667L390.052 153.214L389.24 153.427L389.281 157.802Z" fill="#948181"/>
<path id="Vector_96" fill-rule="evenodd" clip-rule="evenodd" d="M342.432 164.88L343.156 164.745L343.146 160.411L342.333 160.62L342.432 164.88Z" fill="#948181"/>
<path id="Vector_97" fill-rule="evenodd" clip-rule="evenodd" d="M336.745 165.964L337.469 165.828L337.458 161.495L336.646 161.708L336.745 165.964Z" fill="#948181"/>
<path id="Vector_98" fill-rule="evenodd" clip-rule="evenodd" d="M262.443 171.37L161.37 181.432L260.26 169.411C261.38 169.62 262.109 170.271 262.443 171.37Z" fill="#020215"/>
<path id="Vector_99" fill-rule="evenodd" clip-rule="evenodd" d="M514.042 161.396C496.672 175.5 453.568 185.26 385.182 190.411V196.536C469.161 193.073 512.26 181.276 514.042 161.396Z" fill="#948181"/>
<path id="Vector_100" fill-rule="evenodd" clip-rule="evenodd" d="M366.198 179.281C378.521 184.656 381.24 192.24 374.354 202.036L379.63 202.172C386.745 190.469 382.266 182.839 366.198 179.281Z" fill="#020215"/>
<path id="Vector_101" fill-rule="evenodd" clip-rule="evenodd" d="M494.786 120.208C488.193 115.068 479.37 111.969 468.312 110.917C486.109 114.979 486.26 119.193 468.776 123.568L494.786 120.208Z" fill="#051934"/>
<path id="Vector_102" fill-rule="evenodd" clip-rule="evenodd" d="M249.443 160.286C255.948 155.635 286.516 142.203 309.724 136.74C278.797 148.937 258.396 157.88 248.516 163.573L249.443 160.286Z" fill="#051934"/>
<path id="Vector_103" fill-rule="evenodd" clip-rule="evenodd" d="M264 168.443C269.266 171.828 267.521 174.187 258.771 175.51C264.37 173.385 266.109 171.031 264 168.443Z" fill="#020215"/>
</g>
</svg>
