<svg xmlns="http://www.w3.org/2000/svg" xmlns:xlink="http://www.w3.org/1999/xlink" width="500" zoomAndPan="magnify" viewBox="0 0 375 374.999991" height="500" preserveAspectRatio="xMidYMid meet" version="1.0"><defs><filter x="0%" y="0%" width="100%" height="100%" id="98833cae68"><feColorMatrix values="0 0 0 0 1 0 0 0 0 1 0 0 0 0 1 0 0 0 1 0" color-interpolation-filters="sRGB"/></filter><mask id="fe85208053"><g filter="url(#98833cae68)"><rect x="-37.5" width="450" fill="#000000" y="-37.499999" height="449.999989" fill-opacity="0.6863"/></g></mask><clipPath id="955e08e9bc"><path d="M 39 23 L 256 23 L 256 238 L 39 238 Z M 39 23 " clip-rule="nonzero"/></clipPath><clipPath id="2c16924624"><path d="M 133.257812 -2.566406 L 266.371094 130.546875 L 133.789062 263.128906 L 0.675781 130.015625 Z M 133.257812 -2.566406 " clip-rule="nonzero"/></clipPath><clipPath id="6044126e5c"><path d="M 133.257812 -2.566406 L 266.371094 130.546875 L 133.789062 263.128906 L 0.675781 130.015625 Z M 133.257812 -2.566406 " clip-rule="nonzero"/></clipPath><clipPath id="72e54803ec"><rect x="0" width="260" y="0" height="260"/></clipPath></defs><rect x="-37.5" width="450" fill="#ffffff" y="-37.499999" height="449.999989" fill-opacity="1"/><rect x="-37.5" width="450" fill="#ffffff" y="-37.499999" height="449.999989" fill-opacity="1"/><rect x="-37.5" width="450" fill="#d9d9d9" y="-37.499999" height="449.999989" fill-opacity="1"/><g mask="url(#fe85208053)"><g transform="matrix(1, 0, 0, 1, 54, 51)"><g clip-path="url(#72e54803ec)"><g clip-path="url(#955e08e9bc)"><g clip-path="url(#2c16924624)"><g clip-path="url(#6044126e5c)"><path fill="#000000" d="M 107.488281 23.839844 L 118.371094 23.5625 C 124.585938 23.570312 128.742188 29.875 128.742188 29.875 L 142.144531 47.53125 L 157.707031 47.703125 C 165.914062 47.777344 163.433594 57.742188 159.660156 58.261719 L 150.929688 58.914062 L 164.558594 78.734375 L 176.851562 77.796875 C 190.167969 76.613281 188.148438 87.660156 181.566406 88.765625 L 173.257812 89.738281 L 195.109375 118.140625 C 237.5 118.960938 254.941406 119.160156 255.503906 129.964844 C 256.070312 140.839844 235.671875 140.996094 195.722656 141.582031 L 173.417969 171.035156 L 183.066406 171.917969 C 188.765625 172.433594 190.132812 182.101562 179.03125 181.808594 L 164.964844 181.394531 L 151.078125 201.390625 L 159.082031 202.433594 C 166.261719 203.25 166.898438 212.308594 155.730469 212.675781 L 141.304688 212.726562 C 140.789062 212.652344 128.792969 229.929688 128.792969 229.929688 C 123.246094 238.734375 116.578125 237.304688 116.578125 237.304688 L 107.339844 236.671875 L 141.542969 164.960938 C 144.644531 158.75 145.769531 149.75 138.589844 143.769531 C 134.742188 140.664062 120.03125 137.808594 117.4375 138.03125 L 77.550781 137.246094 C 76.660156 137.09375 55.265625 165.789062 55.265625 165.789062 C 54.527344 166.523438 39.625 168.53125 39.625 168.53125 L 49.667969 132.714844 L 40.347656 129.308594 L 49.859375 127.238281 L 39.75 90.941406 L 54.8125 93.28125 C 57.992188 98.386719 77.273438 122.550781 77.9375 122.773438 C 77.9375 122.773438 113.167969 122.925781 115.238281 122.875 C 127.222656 122.582031 131.484375 122.25 135.402344 120.105469 C 139.328125 117.960938 142.261719 112 138.71875 97.195312 C 133.832031 76.777344 107.488281 23.839844 107.488281 23.839844 Z M 107.488281 23.839844 " fill-opacity="1" fill-rule="nonzero"/></g></g></g></g></g></g></svg>